<svg version="1.0" xmlns="http://www.w3.org/2000/svg"
 width="696.000000pt" height="500.000000pt" viewBox="0 0 696.000000 500.000000"
 preserveAspectRatio="xMidYMid meet">

<g transform="translate(0.000000,500.000000) scale(0.100000,-0.100000)"
fill="#ffffff" stroke="none">
<path d="M4594 4514 c-81 -29 -142 -110 -162 -214 -18 -91 -25 -671 -12 -882
11 -167 10 -196 -4 -262 -37 -165 -166 -291 -406 -396 -130 -57 -157 -60 -607
-60 l-413 0 0 718 0 719 184 6 c208 7 424 0 476 -15 55 -17 117 -65 145 -112
50 -85 27 -223 -46 -279 -82 -62 -281 -93 -516 -81 l-133 7 0 -199 0 -199 278
0 c194 -1 293 -5 329 -14 77 -19 130 -62 161 -129 24 -51 27 -68 26 -169 0
-62 1 -113 3 -113 3 0 37 15 78 34 139 64 310 188 340 246 48 93 -6 182 -200
325 l-75 56 61 47 c162 121 228 307 185 522 -45 228 -162 353 -384 411 -69 19
-125 22 -562 31 -484 10 -527 9 -729 -22 -170 -27 -272 -121 -334 -310 -14
-41 -87 -383 -162 -760 -88 -442 -142 -691 -153 -702 -20 -23 -45 -23 -65 0
-12 13 -59 232 -152 699 -137 690 -158 779 -202 867 -81 160 -256 236 -478
208 -150 -20 -256 -87 -314 -200 -23 -46 -57 -164 -66 -232 -10 -76 -74 -1773
-68 -1802 7 -37 48 -76 92 -88 47 -13 245 -13 293 0 44 13 84 57 97 108 5 20
18 396 29 835 15 587 23 802 32 812 15 18 44 19 58 3 5 -7 78 -355 161 -773
141 -708 154 -765 189 -835 30 -61 47 -81 91 -112 74 -52 170 -72 305 -65 186
9 270 55 330 180 31 63 47 130 126 532 50 253 95 471 100 485 5 15 9 -179 9
-475 1 -275 4 -517 7 -537 l7 -38 537 0 c303 0 583 5 641 10 543 55 915 308
1149 780 62 126 102 160 186 160 67 0 123 -30 191 -103 32 -34 171 -220 308
-412 138 -192 266 -366 286 -386 36 -36 39 -37 130 -44 52 -3 173 -5 270 -3
l177 3 -499 679 -498 679 302 295 c166 163 365 358 441 433 l139 137 -104 -1
c-57 0 -151 1 -209 2 -183 6 -262 -38 -484 -266 -138 -142 -596 -574 -616
-581 -5 -2 -10 169 -12 380 -3 365 -4 385 -23 418 -15 24 -33 38 -60 47 -55
16 -151 14 -201 -3z"/>
<path d="M1591 1979 c-101 -17 -167 -71 -191 -158 -5 -20 -10 -153 -10 -297 0
-296 7 -341 65 -398 49 -50 120 -70 240 -70 170 0 264 51 296 160 20 68 20
561 1 617 -44 124 -197 180 -401 146z m198 -153 c47 -25 51 -47 51 -311 l0
-245 -29 -32 c-29 -32 -31 -33 -115 -33 -80 0 -87 2 -113 28 l-28 27 0 259 c0
245 1 260 20 281 11 12 29 26 40 31 33 13 144 10 174 -5z"/>
<path d="M4565 1980 c-58 -8 -120 -38 -152 -72 -47 -50 -53 -91 -53 -382 0
-281 5 -320 43 -377 49 -73 185 -110 332 -91 104 14 162 45 200 107 l30 48 3
286 c3 306 0 340 -45 399 -55 73 -197 106 -358 82z m216 -178 l30 -33 -3 -254
-3 -255 -28 -27 c-24 -24 -36 -28 -101 -31 -93 -5 -130 12 -146 66 -7 24 -10
121 -8 275 l3 239 34 30 c32 29 36 30 113 26 76 -3 81 -5 109 -36z"/>
<path d="M818 1970 c-97 -17 -165 -75 -189 -162 -6 -25 -9 -142 -7 -311 3
-259 4 -274 25 -314 49 -90 146 -129 302 -120 122 7 166 22 217 72 39 40 54
76 69 168 l6 37 -86 0 -85 0 0 -27 c0 -52 -33 -89 -89 -103 -55 -13 -123 -6
-158 16 -38 24 -45 73 -41 317 l3 229 33 29 c29 26 39 29 105 29 93 0 133 -22
142 -77 11 -66 8 -64 92 -61 l78 3 -3 45 c-6 96 -45 166 -110 199 -72 37 -196
49 -304 31z"/>
<path d="M2217 1974 c-4 -4 -7 -211 -7 -461 l0 -453 81 0 82 0 -5 285 c-3 157
-4 284 -2 282 2 -1 61 -128 132 -282 l130 -280 81 -3 81 -3 -2 458 -3 458 -79
3 -79 3 6 -298 c4 -231 3 -292 -6 -273 -7 14 -66 146 -133 295 l-120 270 -75
3 c-41 1 -78 0 -82 -4z"/>
<path d="M3617 1973 c-4 -3 -7 -210 -7 -460 l0 -453 85 0 85 0 0 161 0 160 32
-3 c29 -3 37 -13 120 -160 l90 -158 95 0 94 0 -32 58 c-18 31 -63 109 -100
171 l-66 115 50 30 c71 43 99 100 105 210 11 206 -57 300 -235 326 -77 11
-306 13 -316 3z m332 -167 c38 -20 56 -78 48 -155 -9 -86 -59 -120 -174 -121
l-43 0 0 151 0 152 69 -6 c38 -3 83 -13 100 -21z"/>
<path d="M5180 1520 l0 -460 260 0 260 0 0 75 0 75 -175 0 -175 0 -2 383 -3
382 -82 3 -83 3 0 -461z"/>
<path d="M6002 1961 c-117 -40 -171 -132 -159 -272 12 -146 71 -199 246 -225
53 -8 109 -19 124 -25 64 -26 85 -98 49 -169 -46 -94 -228 -94 -258 0 l-12 35
-81 3 c-79 3 -81 2 -81 -21 0 -91 67 -184 154 -214 79 -28 245 -24 314 6 98
44 142 126 142 266 0 81 -12 125 -46 171 -33 44 -81 64 -212 86 -64 10 -124
24 -135 29 -28 16 -49 75 -42 119 9 54 41 80 106 87 75 7 123 -13 139 -61 l12
-36 80 0 81 0 -6 36 c-16 99 -85 173 -178 193 -75 16 -177 13 -237 -8z"/>
<path d="M2930 1900 l0 -70 95 0 95 0 0 -385 0 -385 80 0 80 0 0 385 0 385 95
0 95 0 0 70 0 70 -270 0 -270 0 0 -70z"/>
<path d="M2962 828 c-32 -32 8 -80 48 -58 34 18 19 70 -20 70 -9 0 -21 -5 -28
-12z"/>
<path d="M5697 834 c-12 -12 -8 -51 8 -64 8 -6 23 -9 35 -5 17 5 20 13 18 38
-2 26 -8 33 -28 35 -14 2 -29 0 -33 -4z"/>
<path d="M730 788 c-7 -24 -32 -114 -56 -200 -24 -87 -44 -162 -44 -168 0 -5
15 -10 33 -10 31 0 35 4 46 40 l12 41 56 -3 c54 -3 57 -4 68 -38 10 -30 16
-35 48 -38 l36 -3 -26 93 c-14 51 -40 145 -57 208 l-31 115 -37 3 c-36 3 -37
2 -48 -40z m59 -115 c5 -21 13 -55 17 -75 l6 -38 -37 0 c-34 0 -37 2 -31 23 3
12 10 46 16 75 7 28 13 52 15 52 3 0 9 -17 14 -37z"/>
<path d="M4140 620 l0 -210 35 0 35 0 0 75 c0 67 2 75 19 75 14 0 32 -22 61
-75 41 -74 42 -75 81 -75 21 0 39 2 39 4 0 2 -18 35 -40 74 -22 38 -40 72 -40
75 0 3 14 19 30 35 27 28 30 36 30 97 0 36 -5 75 -11 87 -17 32 -71 48 -159
48 l-80 0 0 -210z m158 134 c16 -11 22 -25 22 -54 0 -49 -21 -70 -71 -70 l-39
0 0 70 0 70 33 0 c18 0 43 -7 55 -16z"/>
<path d="M4810 660 c0 -105 4 -179 11 -194 33 -72 185 -71 218 1 14 31 14 198
0 225 -22 42 -107 57 -146 25 -10 -7 -13 4 -13 52 l0 61 -35 0 -35 0 0 -170z
m158 -2 c7 -7 12 -42 12 -85 0 -65 -2 -74 -24 -88 -23 -16 -54 -11 -68 9 -13
18 -9 151 4 164 15 15 61 15 76 0z"/>
<path d="M1367 793 l-28 -4 3 -164 c3 -188 9 -202 87 -212 41 -6 41 -5 41 26
0 20 -5 31 -14 31 -34 0 -46 29 -46 116 l0 84 30 0 c27 0 30 3 30 29 0 25 -4
30 -27 33 -23 2 -29 8 -31 36 -2 17 -6 31 -10 31 -4 -1 -20 -4 -35 -6z"/>
<path d="M2768 793 l-28 -4 0 -145 c0 -194 18 -234 106 -234 20 0 24 5 24 30
0 19 -5 30 -14 30 -34 0 -46 29 -46 116 l0 84 30 0 c27 0 30 3 30 29 0 25 -4
30 -27 33 -23 2 -29 8 -31 36 -2 17 -6 31 -10 31 -4 -1 -19 -4 -34 -6z"/>
<path d="M5508 793 l-28 -4 0 -152 c0 -84 3 -162 6 -175 7 -26 51 -52 89 -52
21 0 25 5 25 28 0 21 -7 32 -25 40 -24 11 -25 15 -25 102 0 89 0 90 25 90 21
0 25 5 25 30 0 25 -4 30 -25 30 -22 0 -25 4 -25 35 0 19 -3 34 -7 34 -5 -1
-20 -4 -35 -6z"/>
<path d="M2181 732 c-14 -2 -35 -11 -48 -19 -20 -13 -24 -13 -38 1 -21 21 -94
21 -123 0 -20 -14 -22 -14 -22 0 0 11 -10 16 -30 16 l-30 0 0 -160 0 -160 35
0 35 0 0 113 c0 129 8 151 55 145 44 -5 55 -36 55 -156 l0 -103 33 3 32 3 3
114 c1 64 8 121 14 128 13 16 60 17 76 1 8 -8 12 -52 12 -130 l0 -118 36 0 36
0 -4 134 c-3 125 -5 136 -26 159 -24 25 -58 35 -101 29z"/>
<path d="M3600 733 c-8 -2 -26 -10 -39 -16 -19 -9 -25 -9 -28 1 -3 6 -18 12
-34 12 l-29 0 0 -160 0 -160 35 0 35 0 0 108 c0 123 11 152 60 152 42 0 50
-23 50 -149 l0 -111 35 0 35 0 0 115 c0 116 -11 167 -41 191 -18 14 -60 23
-79 17z"/>
<path d="M990 610 c0 -131 9 -164 51 -186 35 -18 57 -18 93 1 26 14 30 14 40
-1 7 -9 22 -14 37 -12 l24 3 3 158 3 157 -41 0 -40 0 0 -115 c0 -111 -1 -115
-25 -131 -23 -15 -27 -15 -50 0 -24 16 -25 20 -25 131 l0 115 -35 0 -35 0 0
-120z"/>
<path d="M1594 718 c-37 -18 -49 -55 -49 -155 0 -94 0 -95 33 -124 27 -24 41
-29 83 -29 99 0 129 38 129 162 0 76 -18 131 -48 147 -26 14 -120 13 -148 -1z
m116 -67 c16 -32 13 -147 -6 -165 -24 -24 -61 -20 -80 9 -21 32 -16 151 7 166
25 16 68 10 79 -10z"/>
<path d="M2449 717 c-20 -15 -39 -51 -39 -71 0 -26 66 -22 73 4 7 28 72 28 87
1 21 -40 13 -49 -50 -56 -69 -8 -106 -32 -115 -76 -19 -84 79 -143 148 -89
l26 20 6 -20 c4 -13 15 -20 31 -20 l24 0 0 125 c0 134 -8 166 -47 184 -32 15
-124 14 -144 -2z m130 -183 c8 -7 -29 -53 -48 -59 -41 -13 -79 28 -48 53 23
19 78 22 96 6z"/>
<path d="M2960 571 l0 -161 35 0 36 0 -3 158 -3 157 -32 3 -33 3 0 -160z"/>
<path d="M3167 710 c-30 -24 -47 -75 -47 -140 0 -110 38 -160 122 -160 104 0
132 39 127 180 -4 86 -6 93 -32 116 -38 32 -131 34 -170 4z m123 -59 c17 -32
13 -147 -6 -166 -23 -23 -66 -15 -82 15 -16 31 -11 132 7 154 19 23 68 20 81
-3z"/>
<path d="M4519 715 c-35 -19 -49 -62 -49 -147 0 -117 33 -158 125 -158 93 0
125 41 125 159 0 79 -18 134 -48 150 -29 16 -122 13 -153 -4z m121 -64 c5 -11
10 -46 10 -78 0 -67 -19 -103 -55 -103 -36 0 -55 36 -55 103 0 77 11 97 55 97
24 0 38 -6 45 -19z"/>
<path d="M5188 715 c-37 -21 -51 -72 -46 -168 5 -75 7 -82 37 -109 25 -23 41
-28 81 -28 98 0 130 39 130 159 0 79 -18 134 -48 150 -29 16 -122 13 -154 -4z
m122 -64 c16 -32 13 -147 -6 -165 -22 -23 -60 -20 -78 6 -18 26 -22 129 -6
159 15 26 75 26 90 0z"/>
<path d="M5690 570 l0 -160 35 0 35 0 0 160 0 160 -35 0 -35 0 0 -160z"/>
<path d="M5907 719 c-32 -19 -47 -65 -47 -148 0 -44 5 -92 12 -106 16 -36 57
-55 118 -55 44 0 56 5 81 29 19 20 29 40 29 60 0 28 -3 31 -30 31 -19 0 -30
-5 -30 -14 0 -43 -80 -64 -100 -27 -14 27 -13 154 2 169 7 7 27 12 45 12 26 0
36 -6 45 -25 8 -18 19 -25 40 -25 25 0 28 4 28 30 0 19 -9 40 -25 55 -20 21
-33 25 -87 25 -35 0 -71 -5 -81 -11z"/>
<path d="M6235 718 c-33 -18 -45 -40 -45 -83 0 -51 28 -80 85 -90 66 -11 75
-15 75 -35 0 -39 -60 -52 -87 -20 -20 23 -83 28 -83 6 0 -26 41 -66 80 -77 85
-26 160 17 160 91 0 49 -24 77 -77 85 -84 14 -84 14 -81 43 3 23 8 27 41 30
26 2 39 -1 43 -12 4 -10 19 -16 40 -16 43 0 45 21 5 61 -25 25 -37 29 -83 29
-29 0 -62 -6 -73 -12z"/>
<path d="M3820 600 l0 -30 110 0 110 0 0 30 0 30 -110 0 -110 0 0 -30z"/>
</g>
</svg>
